<?xml version="1.0" encoding="utf-8"?>

<svg xmlns="http://www.w3.org/2000/svg" xmlns:xlink="http://www.w3.org/1999/xlink" height="512" width="512" viewBox="0 0 512 512">
  
  <circle cx="256" cy="272" r="240" fill="blue" stroke="black"/>

  <circle cx="256" cy="480" r="32" fill="none" stroke="#FCFCFC"/>
  <circle cx="256" cy="448" r="32" fill="none" stroke="#FCFCFC"/>
  <circle cx="256" cy="416" r="32" fill="none" stroke="#FCFCFC"/>
  <circle cx="256" cy="384" r="32" fill="none" stroke="#FCFCFC"/>
  <circle cx="256" cy="352" r="32" fill="none" stroke="#FCFCFC"/>
  <circle cx="256" cy="320" r="32" fill="none" stroke="#FCFCFC"/>
  <circle cx="256" cy="288" r="32" fill="none" stroke="#FCFCFC"/>
  <circle cx="256" cy="256" r="32" fill="none" stroke="#FCFCFC"/>
  <circle cx="256" cy="224" r="32" fill="none" stroke="#FCFCFC"/>
  <circle cx="256" cy="192" r="32" fill="none" stroke="#FCFCFC"/>
  <circle cx="256" cy="160" r="32" fill="none" stroke="#FCFCFC"/>
  <circle cx="256" cy="128" r="32" fill="none" stroke="#FCFCFC"/>
  <circle cx="256" cy="96" r="32" fill="none" stroke="#FCFCFC"/>
  <circle cx="256" cy="64" r="32" fill="none" stroke="#FCFCFC"/> 
  
  <circle cx="256" cy="464" r="48" fill="none" stroke="#FCFCFC"/>
  <circle cx="256" cy="432" r="80" fill="none" stroke="#FCFCFC"/>
  <circle cx="256" cy="400" r="112" fill="none" stroke="#FCFCFC"/>
  <circle cx="256" cy="368" r="144" fill="none" stroke="#FCFCFC"/>
  <circle cx="256" cy="336" r="176" fill="none" stroke="#FCFCFC"/>
  <circle cx="256" cy="304" r="208" fill="none" stroke="#FCFCFC"/>
  <circle cx="256" cy="272" r="240" fill="none" stroke="#FCFCFC"/>

  <circle cx="256" cy="240" r="208" fill="none" stroke="#FCFCFC"/>
  <circle cx="256" cy="208" r="176" fill="none" stroke="#FCFCFC"/>
  <circle cx="256" cy="176" r="144" fill="none" stroke="#FCFCFC"/>
  <circle cx="256" cy="144" r="112" fill="none" stroke="#FCFCFC"/>
  <circle cx="256" cy="112" r="80" fill="none" stroke="#FCFCFC"/>
  <circle cx="256" cy="80" r="48" fill="none" stroke="#FCFCFC"/>

</svg>


    